# xmcd
# 
# Track frame offsets:
#     150
#     32051
#     56916
#     85390
#     114891
#     142331
#     172717
#     179199
# 
# Disc length: 2655
# 
# Revision: 3
# Processed by: cddbd v1.5.2PL0 Copyright (c) Steve Scherf et al.
# Submitted via: BonkEnc v1.0.8
# 
DISCID=700a5d08
DTITLE=Molot Vedim - Asylum
DYEAR=2004
DGENRE=Black Metal
TTITLE0=Раскаляя Чёрный Ветер...
TTITLE1=Горгулья
TTITLE2=Кладбище Теней
TTITLE3=Живая Тишина
TTITLE4=Мёртвый Город
TTITLE5=Asylum
TTITLE6=Взаперти
TTITLE7=Сквозь Туманы Вещих Снов
EXTD=
EXTT0=
EXTT1=
EXTT2=
EXTT3=
EXTT4=
EXTT5=
EXTT6=
EXTT7=
PLAYORDER=
